<?xml version="1.0" standalone="no"?>
<!DOCTYPE svg PUBLIC "-//W3C//DTD SVG 20010904//EN"
 "http://www.w3.org/TR/2001/REC-SVG-20010904/DTD/svg10.dtd">
<svg version="1.0" xmlns="http://www.w3.org/2000/svg"
 width="200.000000pt" height="200.000000pt" viewBox="0 0 200.000000 200.000000"
 preserveAspectRatio="xMidYMid meet">
<metadata>
Created by potrace 1.11, written by Peter Selinger 2001-2013
</metadata>
<g transform="translate(0.000000,200.000000) scale(0.100000,-0.100000)"
fill="#000000" stroke="none">
<path d="M0 1898 l0 -102 29 45 c43 64 50 70 120 117 l63 42 -106 0 -106 0 0
-102z"/>
<path d="M1851 1958 c70 -47 77 -53 120 -117 l29 -45 0 102 0 102 -106 0 -106
0 63 -42z"/>
<path d="M285 1782 c-17 -11 -42 -35 -58 -55 -27 -36 -27 -36 -27 -202 l0
-167 31 -39 c58 -73 12 -69 772 -69 l684 0 34 25 c73 53 95 65 124 67 59 3
110 -4 133 -18 l22 -14 0 215 0 215 -22 -14 c-52 -32 -151 -28 -201 8 -12 9
-37 28 -56 41 l-34 25 -686 0 c-648 0 -688 -1 -716 -18z"/>
<path d="M0 1025 l0 -229 28 45 c39 59 75 93 137 129 l52 30 783 0 783 0 52
-30 c62 -36 98 -70 137 -129 l28 -45 0 229 0 229 -29 -45 c-45 -67 -51 -73
-120 -118 l-64 -41 -787 0 -787 0 -64 41 c-69 45 -75 51 -120 118 l-29 45 0
-229z"/>
<path d="M285 782 c-17 -11 -42 -34 -56 -53 -26 -33 -26 -38 -28 -206 -1 -95
1 -173 6 -173 4 0 16 -14 25 -30 9 -16 32 -39 50 -50 32 -19 49 -20 716 -20
730 0 711 -1 756 49 l19 21 -254 0 c-226 0 -256 2 -275 18 -52 42 -55 108 -7
156 l27 27 320 -3 c302 -3 323 -4 356 -23 22 -13 39 -34 47 -55 10 -30 12 -10
12 133 l1 167 -22 -14 c-52 -32 -151 -28 -201 8 -12 9 -37 28 -56 41 l-34 25
-686 0 c-648 0 -688 -1 -716 -18z"/>
<path d="M0 127 l0 -127 1000 0 1000 0 0 127 0 127 -29 -45 c-45 -67 -51 -73
-120 -118 l-64 -41 -787 0 -787 0 -64 41 c-69 45 -75 51 -120 118 l-29 45 0
-127z"/>
</g>
</svg>
